<svg width="30" height="31" viewBox="0 0 30 31" fill="none" xmlns="http://www.w3.org/2000/svg">
<g clip-path="url(#clip0_2169_978)">
<path d="M6.4 5.35781L6.34286 5.40067L6.3 5.45781C5.9671 5.90168 5.7 6.40627 5.7 7.05781C5.7 7.68692 5.94888 8.28965 6.3 8.75781L6.32132 8.78624L6.34645 8.81137C6.75105 9.21597 7.38354 9.45781 8 9.45781C8.5585 9.45781 9.24319 9.24903 9.58844 8.68719C10.0783 8.27094 10.3 7.64554 10.3 7.05781C10.3 6.40627 10.0329 5.90168 9.7 5.45781L9.67868 5.42939L9.65355 5.40426C9.43405 5.18475 9.13624 5.02778 8.86035 4.92614C8.58156 4.82343 8.27231 4.75781 8 4.75781C7.45984 4.75781 6.8569 5.01514 6.4 5.35781ZM9.9 22.3578H10.4V21.8578V10.3578V9.85781H9.9H6.2H5.7V10.3578V21.8578V22.3578H6.2H9.9ZM19.6 21.8578V22.3578H20.1H23.8H23.9H24.4V21.8578V14.5578C24.4 13.0324 23.9562 11.8537 23.2227 11.0095C22.4924 10.1691 21.5091 9.69964 20.4963 9.52739C19.4863 9.35562 18.4291 9.47541 17.5168 9.83102C17.0769 10.0025 16.6617 10.2327 16.3 10.5188V10.3578V9.85781H15.8H12.1H11.6V10.3578V21.8578V22.3578H12.1H15.7H16.2V21.8578V15.7578C16.2 14.3042 17.109 13.6226 17.917 13.595C18.3306 13.5809 18.7392 13.7323 19.0481 14.0611C19.3565 14.3894 19.6 14.9328 19.6 15.7578V21.8578ZM0.5 15.2578C0.5 7.23395 6.97614 0.757812 15 0.757812C23.0239 0.757812 29.5 7.23395 29.5 15.2578C29.5 23.2817 23.0239 29.7578 15 29.7578C6.97614 29.7578 0.5 23.2817 0.5 15.2578Z" stroke="#89BCD9"/>
</g>
<defs>
<clipPath id="clip0_2169_978">
<rect width="30" height="30" fill="white" transform="translate(0 0.257812)"/>
</clipPath>
</defs>
</svg>
