<svg width="620" height="393" viewBox="0 0 620 393" fill="none" xmlns="http://www.w3.org/2000/svg">
<rect width="620" height="393" fill="#F8F5EC"/>
<path d="M168.48 208.8C168.053 209.093 167.413 209.453 166.56 209.88C165.733 210.28 164.747 210.627 163.6 210.92C162.48 211.213 161.24 211.347 159.88 211.32C157.613 211.293 155.573 210.893 153.76 210.12C151.973 209.347 150.453 208.293 149.2 206.96C147.947 205.6 146.973 204.053 146.28 202.32C145.613 200.56 145.28 198.693 145.28 196.72C145.28 194.533 145.627 192.533 146.32 190.72C147.013 188.88 148 187.28 149.28 185.92C150.587 184.56 152.107 183.507 153.84 182.76C155.6 182.013 157.52 181.64 159.6 181.64C161.387 181.64 163 181.88 164.44 182.36C165.88 182.84 167.093 183.4 168.08 184.04L166.4 188.04C165.627 187.507 164.667 187 163.52 186.52C162.4 186.013 161.147 185.76 159.76 185.76C158.4 185.76 157.107 186.04 155.88 186.6C154.68 187.133 153.613 187.893 152.68 188.88C151.773 189.84 151.053 190.973 150.52 192.28C149.987 193.56 149.72 194.96 149.72 196.48C149.72 198.027 149.96 199.453 150.44 200.76C150.92 202.067 151.6 203.2 152.48 204.16C153.387 205.12 154.467 205.867 155.72 206.4C156.973 206.933 158.387 207.2 159.96 207.2C161.453 207.2 162.76 206.973 163.88 206.52C165.027 206.067 165.96 205.547 166.68 204.96L168.48 208.8ZM172.533 202.44C172.533 200.76 172.933 199.253 173.733 197.92C174.533 196.56 175.639 195.493 177.053 194.72C178.466 193.947 180.079 193.56 181.893 193.56C183.733 193.56 185.346 193.947 186.733 194.72C188.119 195.493 189.186 196.56 189.933 197.92C190.706 199.253 191.093 200.76 191.093 202.44C191.093 204.12 190.706 205.64 189.933 207C189.186 208.36 188.119 209.44 186.733 210.24C185.346 211.013 183.719 211.4 181.853 211.4C180.066 211.4 178.466 211.04 177.053 210.32C175.666 209.6 174.559 208.573 173.733 207.24C172.933 205.88 172.533 204.28 172.533 202.44ZM176.692 202.48C176.692 203.52 176.919 204.467 177.373 205.32C177.826 206.147 178.439 206.813 179.213 207.32C179.986 207.8 180.853 208.04 181.813 208.04C182.799 208.04 183.679 207.8 184.453 207.32C185.226 206.813 185.826 206.147 186.253 205.32C186.706 204.467 186.933 203.52 186.933 202.48C186.933 201.44 186.706 200.507 186.253 199.68C185.826 198.853 185.226 198.187 184.453 197.68C183.679 197.173 182.799 196.92 181.813 196.92C180.826 196.92 179.946 197.173 179.173 197.68C178.399 198.187 177.786 198.867 177.333 199.72C176.906 200.547 176.692 201.467 176.692 202.48ZM199.645 194.24L200.005 197.84L199.845 197.56C200.485 196.307 201.365 195.333 202.485 194.64C203.605 193.92 204.898 193.56 206.365 193.56C207.271 193.56 208.085 193.707 208.805 194C209.551 194.293 210.165 194.707 210.645 195.24C211.125 195.773 211.431 196.44 211.565 197.24L211.365 197.36C212.031 196.187 212.911 195.267 214.005 194.6C215.125 193.907 216.311 193.56 217.565 193.56C219.191 193.56 220.485 194.027 221.445 194.96C222.431 195.893 222.938 197.093 222.965 198.56V211H218.885V200.12C218.858 199.293 218.658 198.6 218.285 198.04C217.938 197.48 217.311 197.173 216.405 197.12C215.445 197.12 214.591 197.413 213.845 198C213.125 198.587 212.565 199.347 212.165 200.28C211.765 201.213 211.551 202.213 211.525 203.28V211H207.405V200.12C207.378 199.293 207.178 198.6 206.805 198.04C206.431 197.48 205.778 197.173 204.845 197.12C203.885 197.12 203.045 197.413 202.325 198C201.605 198.587 201.045 199.36 200.645 200.32C200.271 201.253 200.085 202.24 200.085 203.28V211H195.965V194.24H199.645ZM232.965 194.24L233.325 197.84L233.165 197.56C233.805 196.307 234.685 195.333 235.805 194.64C236.925 193.92 238.218 193.56 239.685 193.56C240.592 193.56 241.405 193.707 242.125 194C242.872 194.293 243.485 194.707 243.965 195.24C244.445 195.773 244.752 196.44 244.885 197.24L244.685 197.36C245.352 196.187 246.232 195.267 247.325 194.6C248.445 193.907 249.632 193.56 250.885 193.56C252.512 193.56 253.805 194.027 254.765 194.96C255.752 195.893 256.258 197.093 256.285 198.56V211H252.205V200.12C252.178 199.293 251.978 198.6 251.605 198.04C251.258 197.48 250.632 197.173 249.725 197.12C248.765 197.12 247.912 197.413 247.165 198C246.445 198.587 245.885 199.347 245.485 200.28C245.085 201.213 244.872 202.213 244.845 203.28V211H240.725V200.12C240.698 199.293 240.498 198.6 240.125 198.04C239.752 197.48 239.098 197.173 238.165 197.12C237.205 197.12 236.365 197.413 235.645 198C234.925 198.587 234.365 199.36 233.965 200.32C233.592 201.253 233.405 202.24 233.405 203.28V211H229.285V194.24H232.965ZM262.605 194.24H266.725V211H262.605V194.24ZM262.365 188.24C262.365 187.6 262.619 187.067 263.125 186.64C263.632 186.213 264.179 186 264.765 186C265.379 186 265.925 186.213 266.405 186.64C266.885 187.067 267.125 187.6 267.125 188.24C267.125 188.88 266.885 189.413 266.405 189.84C265.925 190.24 265.379 190.44 264.765 190.44C264.179 190.44 263.632 190.24 263.125 189.84C262.619 189.413 262.365 188.88 262.365 188.24ZM276.676 194.24L277.036 198.08L276.876 197.56C277.436 196.36 278.303 195.4 279.476 194.68C280.649 193.933 282.036 193.56 283.636 193.56C285.209 193.56 286.503 194.027 287.516 194.96C288.556 195.893 289.089 197.107 289.116 198.6V211H284.996V200.04C284.969 199.187 284.716 198.493 284.236 197.96C283.756 197.4 283.009 197.107 281.996 197.08C281.089 197.08 280.263 197.36 279.516 197.92C278.769 198.453 278.183 199.187 277.756 200.12C277.329 201.053 277.116 202.133 277.116 203.36V211H272.996V194.24H276.676ZM303.618 219.32C302.311 219.32 301.178 219.173 300.218 218.88C299.258 218.587 298.391 218.173 297.618 217.64C296.871 217.133 296.151 216.587 295.458 216L297.898 213.16C298.724 213.933 299.578 214.547 300.458 215C301.338 215.48 302.364 215.72 303.538 215.72C304.711 215.72 305.711 215.52 306.538 215.12C307.391 214.747 308.044 214.213 308.498 213.52C308.951 212.827 309.178 212 309.178 211.04L309.218 206.68L309.498 207.48C309.044 208.573 308.204 209.507 306.978 210.28C305.751 211.027 304.244 211.4 302.458 211.4C300.938 211.4 299.524 211.013 298.218 210.24C296.938 209.467 295.911 208.413 295.138 207.08C294.364 205.747 293.978 204.24 293.978 202.56C293.978 200.8 294.378 199.253 295.178 197.92C296.004 196.56 297.084 195.493 298.418 194.72C299.751 193.92 301.178 193.52 302.698 193.52C304.191 193.52 305.524 193.813 306.698 194.4C307.871 194.96 308.751 195.667 309.338 196.52L309.098 197.2L309.538 194.24H313.338V211.08C313.338 212.627 312.924 214.013 312.098 215.24C311.298 216.493 310.178 217.48 308.738 218.2C307.298 218.947 305.591 219.32 303.618 219.32ZM298.138 202.44C298.138 203.48 298.378 204.427 298.858 205.28C299.338 206.133 299.991 206.813 300.818 207.32C301.671 207.8 302.618 208.04 303.658 208.04C304.591 208.04 305.431 207.88 306.178 207.56C306.924 207.213 307.551 206.76 308.058 206.2C308.591 205.613 308.978 204.933 309.218 204.16V200.68C308.978 199.907 308.591 199.253 308.058 198.72C307.524 198.16 306.884 197.72 306.138 197.4C305.391 197.08 304.564 196.92 303.658 196.92C302.618 196.92 301.671 197.16 300.818 197.64C299.991 198.093 299.338 198.733 298.858 199.56C298.378 200.387 298.138 201.347 298.138 202.44ZM337.251 211.36C336.024 211.36 334.838 211.147 333.691 210.72C332.544 210.267 331.598 209.613 330.851 208.76L332.611 206.44C333.331 207.107 334.051 207.613 334.771 207.96C335.518 208.28 336.224 208.44 336.891 208.44C337.424 208.44 337.904 208.387 338.331 208.28C338.758 208.147 339.104 207.933 339.371 207.64C339.638 207.347 339.771 206.96 339.771 206.48C339.771 205.92 339.584 205.48 339.211 205.16C338.838 204.84 338.358 204.573 337.771 204.36C337.184 204.147 336.558 203.947 335.891 203.76C334.478 203.307 333.411 202.667 332.691 201.84C331.971 200.987 331.611 199.987 331.611 198.84C331.611 197.96 331.824 197.133 332.251 196.36C332.704 195.56 333.384 194.907 334.291 194.4C335.198 193.893 336.318 193.64 337.651 193.64C338.878 193.64 339.958 193.787 340.891 194.08C341.824 194.347 342.691 194.813 343.491 195.48L341.891 197.96C341.411 197.48 340.838 197.12 340.171 196.88C339.531 196.613 338.944 196.467 338.411 196.44C337.931 196.44 337.491 196.52 337.091 196.68C336.691 196.813 336.371 197.027 336.131 197.32C335.891 197.587 335.771 197.907 335.771 198.28C335.744 198.813 335.918 199.253 336.291 199.6C336.691 199.92 337.198 200.187 337.811 200.4C338.424 200.587 339.024 200.787 339.611 201C340.438 201.24 341.171 201.573 341.811 202C342.451 202.4 342.958 202.893 343.331 203.48C343.704 204.067 343.891 204.813 343.891 205.72C343.891 206.707 343.651 207.64 343.171 208.52C342.691 209.373 341.958 210.067 340.971 210.6C339.984 211.107 338.744 211.36 337.251 211.36ZM347.533 202.44C347.533 200.76 347.933 199.253 348.733 197.92C349.533 196.56 350.639 195.493 352.053 194.72C353.466 193.947 355.079 193.56 356.893 193.56C358.733 193.56 360.346 193.947 361.733 194.72C363.119 195.493 364.186 196.56 364.933 197.92C365.706 199.253 366.093 200.76 366.093 202.44C366.093 204.12 365.706 205.64 364.933 207C364.186 208.36 363.119 209.44 361.733 210.24C360.346 211.013 358.719 211.4 356.853 211.4C355.066 211.4 353.466 211.04 352.053 210.32C350.666 209.6 349.559 208.573 348.733 207.24C347.933 205.88 347.533 204.28 347.533 202.44ZM351.692 202.48C351.692 203.52 351.919 204.467 352.373 205.32C352.826 206.147 353.439 206.813 354.213 207.32C354.986 207.8 355.853 208.04 356.813 208.04C357.799 208.04 358.679 207.8 359.453 207.32C360.226 206.813 360.826 206.147 361.253 205.32C361.706 204.467 361.933 203.52 361.933 202.48C361.933 201.44 361.706 200.507 361.253 199.68C360.826 198.853 360.226 198.187 359.453 197.68C358.679 197.173 357.799 196.92 356.813 196.92C355.826 196.92 354.946 197.173 354.173 197.68C353.399 198.187 352.786 198.867 352.333 199.72C351.906 200.547 351.692 201.467 351.692 202.48ZM369.525 202.44C369.525 200.76 369.925 199.253 370.725 197.92C371.525 196.56 372.631 195.493 374.045 194.72C375.458 193.947 377.071 193.56 378.885 193.56C380.725 193.56 382.338 193.947 383.725 194.72C385.111 195.493 386.178 196.56 386.925 197.92C387.698 199.253 388.085 200.76 388.085 202.44C388.085 204.12 387.698 205.64 386.925 207C386.178 208.36 385.111 209.44 383.725 210.24C382.338 211.013 380.711 211.4 378.845 211.4C377.058 211.4 375.458 211.04 374.045 210.32C372.658 209.6 371.551 208.573 370.725 207.24C369.925 205.88 369.525 204.28 369.525 202.44ZM373.685 202.48C373.685 203.52 373.911 204.467 374.365 205.32C374.818 206.147 375.431 206.813 376.205 207.32C376.978 207.8 377.845 208.04 378.805 208.04C379.791 208.04 380.671 207.8 381.445 207.32C382.218 206.813 382.818 206.147 383.245 205.32C383.698 204.467 383.925 203.52 383.925 202.48C383.925 201.44 383.698 200.507 383.245 199.68C382.818 198.853 382.218 198.187 381.445 197.68C380.671 197.173 379.791 196.92 378.805 196.92C377.818 196.92 376.938 197.173 376.165 197.68C375.391 198.187 374.778 198.867 374.325 199.72C373.898 200.547 373.685 201.467 373.685 202.48ZM396.637 194.24L396.997 198.08L396.837 197.56C397.397 196.36 398.264 195.4 399.437 194.68C400.61 193.933 401.997 193.56 403.597 193.56C405.17 193.56 406.464 194.027 407.477 194.96C408.517 195.893 409.05 197.107 409.077 198.6V211H404.957V200.04C404.93 199.187 404.677 198.493 404.197 197.96C403.717 197.4 402.97 197.107 401.957 197.08C401.05 197.08 400.224 197.36 399.477 197.92C398.73 198.453 398.144 199.187 397.717 200.12C397.29 201.053 397.077 202.133 397.077 203.36V211H392.957V194.24H396.637ZM413.419 208.72C413.419 208.08 413.645 207.547 414.099 207.12C414.579 206.667 415.112 206.44 415.699 206.44C416.232 206.44 416.725 206.667 417.179 207.12C417.659 207.547 417.899 208.08 417.899 208.72C417.899 209.413 417.659 209.973 417.179 210.4C416.725 210.8 416.232 211 415.699 211C415.112 211 414.579 210.8 414.099 210.4C413.645 209.973 413.419 209.413 413.419 208.72ZM420.177 208.72C420.177 208.08 420.403 207.547 420.857 207.12C421.337 206.667 421.87 206.44 422.457 206.44C422.99 206.44 423.483 206.667 423.937 207.12C424.417 207.547 424.657 208.08 424.657 208.72C424.657 209.413 424.417 209.973 423.937 210.4C423.483 210.8 422.99 211 422.457 211C421.87 211 421.337 210.8 420.857 210.4C420.403 209.973 420.177 209.413 420.177 208.72ZM426.934 208.72C426.934 208.08 427.161 207.547 427.614 207.12C428.094 206.667 428.628 206.44 429.214 206.44C429.748 206.44 430.241 206.667 430.694 207.12C431.174 207.547 431.414 208.08 431.414 208.72C431.414 209.413 431.174 209.973 430.694 210.4C430.241 210.8 429.748 211 429.214 211C428.628 211 428.094 210.8 427.614 210.4C427.161 209.973 426.934 209.413 426.934 208.72Z" fill="#89BCD9"/>
</svg>
